<?xml version="1.0" ?><svg viewBox="0 0 512 512" xmlns="http://www.w3.org/2000/svg"><defs><style>.cls-1{fill:#f0a5a5;}.cls-2{fill:#cc8c8c;}.cls-3{fill:#f9b7b7;}.cls-4{fill:#cbe2ef;}.cls-5{fill:#d49c9c;}.cls-6{fill:#0071af;}.cls-7{fill:#ea8383;}.cls-8{fill:#ec9090;}.cls-9{fill:#00659d;}.cls-10{fill:#7db6d6;}.cls-11{fill:#d27676;}.cls-12{fill:#006095;}.cls-13{fill:#005686;}.cls-14{fill:#c97b7b;}.cls-15{fill:#adc0cb;}.cls-16{fill:#6a9bb6;}</style></defs><g data-name="/ FLAT" id="_FLAT"><rect class="cls-1" height="72" width="112" x="200" y="272"/><path class="cls-2" d="M240,344h72V272A71.99981,71.99981,0,0,1,240,344Z"/><path class="cls-1" d="M149.66528,152a29.66562,29.66562,0,0,0-29.66577,29.66553h0a29.66529,29.66529,0,0,0,16.39893,26.53369L168,224V152Z"/><path class="cls-1" d="M362.334,152H344v72l31.60083-15.80078a29.66507,29.66507,0,0,0,16.39868-26.53369h0A29.66557,29.66557,0,0,0,362.334,152Z"/><path class="cls-3" d="M151.99951,80V206.76929A80.00022,80.00022,0,0,0,203.28125,281.437l24,9.23047a79.99971,79.99971,0,0,0,57.43677,0l24-9.23047a80,80,0,0,0,51.28149-74.66772V64Z"/><path class="cls-4" d="M279.52686,184.761a80.00182,80.00182,0,0,1-47.05372,0L189.7124,171.60376a106.49048,106.49048,0,0,0-6.98779,97.42065l.48584,1.13379a79.89872,79.89872,0,0,0,20.0708,11.27881l24,9.23047a79.99971,79.99971,0,0,0,57.43677,0l24-9.23047a79.89265,79.89265,0,0,0,20.07177-11.27978l.4856-1.13282a106.49048,106.49048,0,0,0-6.98779-97.42065Z"/><path class="cls-5" d="M215.46851,286.124l11.81274,4.54346a79.99971,79.99971,0,0,0,57.43677,0l24-9.23047a80,80,0,0,0,51.28149-74.66772V88.03882C359.98267,180.76123,299.28931,259.294,215.46851,286.124Z"/><path class="cls-6" d="M460.75586,408.81982a80.00022,80.00022,0,0,0-53.78516-52.8872L311.99951,328h0a112.87213,112.87213,0,0,1-111.99975,0h-.00025l-94.97095,27.93262a80.00022,80.00022,0,0,0-53.78515,52.8872L23.99951,496h464Z"/><rect class="cls-7" height="16.00095" transform="translate(-22.81139 303.71075) rotate(-59.03624)" width="27.98877" x="242.80542" y="163.99952"/><polygon class="cls-8" points="251.926 102.747 360 136 360 72 251.926 102.747"/><rect class="cls-7" height="16" width="24" x="288" y="144"/><rect class="cls-7" height="16" width="24" x="200" y="144"/><rect class="cls-9" height="80" width="16" x="128" y="416"/><rect class="cls-9" height="80" width="16" x="368" y="416"/><path class="cls-10" d="M256,235.64355a88.13194,88.13194,0,0,1-27.82812-4.48632l-22.70215-7.56739,5.06054-15.17968,22.70215,7.56738a72.4398,72.4398,0,0,0,45.53516,0l22.70215-7.56738,5.06054,15.17968-22.70215,7.56739A88.13194,88.13194,0,0,1,256,235.64355Z"/><path class="cls-11" d="M345.25533,82.907,151.99966,128V80a56,56,0,0,1,56-56h184v.00005A60.4893,60.4893,0,0,1,345.25533,82.907Z"/><path class="cls-10" d="M359.99951,151.62988,277.1748,177.11426a71.73761,71.73761,0,0,1-42.3496,0l-82.82569-25.48487v16.74073l78.12061,24.03711a87.68345,87.68345,0,0,0,51.75976,0l78.11963-24.03687Z"/><path class="cls-12" d="M320.00024,496H487.99951l-24.958-79.86621A167.88472,167.88472,0,0,1,320.00024,496Z"/><path class="cls-13" d="M368,489.02832V496h16V483.376A166.45431,166.45431,0,0,1,368,489.02832Z"/><path class="cls-14" d="M354.79883,134.3999,359.99951,136V88.0293A208.64781,208.64781,0,0,1,354.79883,134.3999Z"/><path class="cls-15" d="M215.46851,286.124l11.81274,4.54346a79.99971,79.99971,0,0,0,57.43677,0l24-9.23047a79.89265,79.89265,0,0,0,20.07177-11.27978l.4856-1.13282a106.46958,106.46958,0,0,0,2.74219-76.77246A208.56,208.56,0,0,1,215.46851,286.124Z"/><path class="cls-10" d="M256,270.4248a87.93347,87.93347,0,0,1-17.25781-1.71777l-24.31153-4.8623,3.13868-15.68946,24.31054,4.86231a71.59806,71.59806,0,0,0,28.24121,0l24.30957-4.86231,3.13868,15.68946-24.31055,4.8623A87.95071,87.95071,0,0,1,256,270.4248Z"/><path class="cls-16" d="M256,270.4248a87.95071,87.95071,0,0,0,17.25879-1.71777l24.31055-4.8623-3.13868-15.68946-12.89379,2.57911A208.33292,208.33292,0,0,1,252.1582,270.3291C253.43848,270.38574,254.71924,270.4248,256,270.4248Z"/><path class="cls-16" d="M359.99951,168.37036V151.62988l-11.03906,3.39649q-3.32081,9.76136-7.56567,19.0686Z"/><path class="cls-13" d="M368,489.02832V496h16V483.376A166.45431,166.45431,0,0,1,368,489.02832Z"/></g></svg>